<svg xmlns="http://www.w3.org/2000/svg" width="48" height="48"><defs><clipPath id="b" clipPathUnits="userSpaceOnUse"><path d="m27.643 3.295 13.086 13.086H29.656c-.978 0-2.013-1.036-2.013-2.013V3.295z" style="fill:#f9f8f2;fill-opacity:1;stroke-width:1.00658333"/></clipPath><filter id="a" width="1.12" height="1.12" x="-.06" y="-.06" style="color-interpolation-filters:sRGB"><feGaussianBlur stdDeviation=".283"/></filter></defs><path d="M9.798 4.204c-.895 0-1.74.844-1.74 1.739v36.521c0 .845.895 1.74 1.74 1.74h27.826c.844 0 1.739-.895 1.739-1.74V15.508L28.059 4.204Z" style="fill:#d41a1a;fill-opacity:1;stroke-width:.86956519"/><path d="m28.248 4.271 11.304 11.304h-9.565c-.844 0-1.739-.894-1.739-1.739V4.271z" clip-path="url(#b)" style="fill:#000;fill-opacity:.39200003;stroke-width:.86956519;filter:url(#a)" transform="translate(-.29 .204)"/><path d="m28.059 4.204 11.304 11.304h-9.565c-.845 0-1.74-.895-1.74-1.74V4.205z" style="fill:#e55a5a;fill-opacity:1;stroke-width:.86956519"/><path d="M20.133 14.763c-1.024-.018-1.908 1-1.691 2.018.145 1.555 1.148 2.817 1.93 4.1.088.478-.164.944-.18 1.418-.51 2.787-1.289 5.558-2.486 8.115-1.481.682-3.159 1.356-4.025 2.825-.55 1.02.224 2.397 1.36 2.504 1.055.144 1.838-.76 2.414-1.516.602-.815.998-1.784 1.499-2.66 3.03-1.22 6.218-2.073 9.472-2.397 1.316.942 2.71 2.053 4.398 2.12.98-.014 1.774-.966 1.667-1.933-.064-.88-.846-1.498-1.656-1.663-1.307-.394-2.707-.178-4.036-.169-2.558-2.044-4.92-4.396-6.78-7.087.138-1.636.415-3.445-.437-4.934-.323-.47-.872-.791-1.45-.74m.05 1.485c.288.056.307.485.387.714.076.468.068.945.062 1.417-.343-.64-.788-1.31-.709-2.07.09-.005.17-.05.26-.06m1.587 6.38a39.29 39.29 0 0 0 5.066 5.224 37.955 37.955 0 0 0-7.177 1.834 40.262 40.262 0 0 0 2.013-7.176l.097.118m9.51 6.372c.592.057 1.274.023 1.748.43.044.368-.406.422-.645.289-.5-.167-.995-.377-1.419-.696.106-.007.211-.02.317-.023M16.507 32.87a5.089 5.089 0 0 1-1.117 1.386c-.142.23-.532-.195-.353-.375.37-.58 1.017-.887 1.59-1.233l-.12.222" style="fill:#fff;stroke-width:.05980879"/></svg>